<?xml version="1.0" encoding="UTF-8"?>
<svg version="1.1" xmlns="http://www.w3.org/2000/svg" width="512" height="512">
<path d="M0 0 C1.3088282 -0.01242204 2.61765639 -0.02484408 3.96614605 -0.03764254 C5.41701434 -0.02614141 6.86787895 -0.01416919 8.31873989 -0.0017767 C9.86131139 -0.00682127 11.40387703 -0.01404942 12.94642919 -0.02327484 C17.18775168 -0.04223847 21.42849915 -0.02994028 25.66980731 -0.0125519 C30.24330172 0.00079805 34.81671064 -0.01460684 39.3901968 -0.02637386 C48.35257593 -0.04477565 57.31473736 -0.03621988 66.27710975 -0.01828564 C73.5638032 -0.00426728 80.8504375 -0.00036521 88.13714314 -0.00372791 C89.17376148 -0.00420536 90.21037982 -0.0046828 91.27841083 -0.00517471 C93.3842894 -0.00620104 95.49016796 -0.0072564 97.5960465 -0.00834047 C116.22976434 -0.01691345 134.86337709 -0.0002165 153.49706936 0.02948856 C171.56937995 0.05829826 189.64153898 0.06542405 207.71386623 0.04999638 C227.39216692 0.03322073 247.07039559 0.0292162 266.74869817 0.04670674 C268.84902536 0.0485511 270.94935255 0.05038582 273.04967976 0.05221081 C274.59974656 0.05357894 274.59974656 0.05357894 276.18112784 0.05497472 C283.45321799 0.06057387 290.72527294 0.05727844 297.99736118 0.05066586 C306.86862971 0.04291951 315.73974922 0.04973118 324.61098779 0.0748409 C329.13500376 0.08730913 333.65878808 0.09351526 338.18281269 0.08229923 C342.33021098 0.07221154 346.47714872 0.08081224 350.62449127 0.10388041 C352.11915411 0.1090128 353.61385868 0.10752681 355.10850299 0.09848576 C370.29635953 0.01431026 383.40752556 3.75866922 394.74926662 14.25141239 C407.75567962 28.04768853 409.02451072 42.81621436 409.24926662 60.75141239 C409.28249136 62.58476938 409.31698566 64.41810382 409.35278225 66.25141239 C409.43709501 70.70962031 409.50418049 75.16778243 409.56176662 79.62641239 C410.71886135 80.06396854 411.87595608 80.5015247 413.06811428 80.95234013 C451.62887859 95.54403693 451.62887859 95.54403693 464.93676662 100.87641239 C465.78835354 101.20955448 466.63994045 101.54269657 467.51733303 101.88593388 C475.40486906 105.09694364 475.40486906 105.09694364 477.56176662 108.62641239 C478.65870141 116.44117346 476.46041433 122.82042954 473.54614162 129.97016239 C473.13390347 131.01990238 472.72166531 132.06964237 472.29693508 133.15119267 C470.98435054 136.48278078 469.64855633 139.80447308 468.31176662 143.12641239 C467.42870399 145.35626706 466.54717908 147.58673134 465.66723537 149.81781864 C463.67817414 154.85076191 461.6733794 159.87711912 459.6568594 164.89911747 C457.95409896 169.13979005 456.25825816 173.38322891 454.56176662 177.62641239 C455.72321194 178.00024052 456.88465725 178.37406864 458.08129787 178.75922489 C464.50302035 180.90356988 470.83263312 183.28878054 477.15576077 185.70502567 C478.55494212 186.23728568 479.95601027 186.76461122 481.35888577 187.28705692 C483.41410854 188.05282675 485.46288683 188.83400438 487.51098537 189.61859989 C488.72101223 190.07605595 489.93103909 190.533512 491.17773342 191.00483036 C495.27344875 192.96744065 497.55533692 194.17631707 500.56176662 197.62641239 C502.15033552 204.69565202 499.734487 211.12308961 497.07348537 217.59906864 C496.70366543 218.53868443 496.33384548 219.47830021 495.95281887 220.4463892 C494.73380472 223.53363599 493.49150105 226.61094437 492.24926662 229.68891239 C491.38232407 231.8735058 490.51720288 234.05882279 489.65380764 236.24482059 C487.85862793 240.78596291 486.05565414 245.32389425 484.2473135 249.85981083 C480.48742103 259.30952082 476.83030132 268.79864891 473.16915798 278.28693485 C471.6107622 282.31912896 470.04326706 286.34775958 468.47605801 290.37653446 C465.22325105 298.73892965 461.99061228 307.10823734 458.79865932 315.49407291 C457.16298279 319.78549648 455.51575214 324.07243274 453.86672878 328.35874271 C453.0869584 330.39425298 452.31250347 332.43180836 451.5436697 334.47147465 C450.48255974 337.28505254 449.40323948 340.090989 448.31957912 342.89594364 C447.8582584 344.14070972 447.8582584 344.14070972 447.38761806 345.4106226 C445.574506 350.03958153 444.01255512 353.00538772 439.56176662 355.62641239 C432.62548423 357.40817965 425.81406224 354.22791483 419.49926662 351.62641239 C418.53827053 351.24484989 417.57727444 350.86328739 416.58715725 350.47016239 C414.23952173 349.5357801 411.89844139 348.58780176 409.56176662 347.62641239 C409.54758694 348.72340458 409.53340725 349.82039677 409.51879787 350.95063114 C409.47187954 352.40509938 409.42363225 353.85952516 409.37426662 355.31391239 C409.36846584 356.03514286 409.36266506 356.75637333 409.3566885 357.49945927 C409.18783207 361.60829911 408.86393728 363.2438987 406.22582912 366.58344364 C402.85803488 369.16607765 400.79267038 369.62641239 396.56176662 369.62641239 C392.54657599 368.11124612 390.95808309 367.2208871 388.56176662 363.62641239 C388.30925894 361.25835842 388.30925894 361.25835842 388.30564022 358.39696503 C388.29629208 356.76180157 388.29629208 356.76180157 388.28675508 355.09360451 C388.29005406 353.89129741 388.29335303 352.68899032 388.29675198 351.45024967 C388.29237071 350.17659017 388.28798944 348.90293066 388.2834754 347.59067541 C388.2715239 344.04804139 388.27199711 340.50549959 388.27441049 336.96285021 C388.2748291 333.1446644 388.26373983 329.32651072 388.25395107 325.50833988 C388.23847727 318.88840864 388.23008228 312.26849874 388.22624111 305.64855099 C388.22049714 296.06627084 388.20191511 286.48404812 388.17980057 276.90179331 C388.14405562 261.34166596 388.11575551 245.78153535 388.09350491 230.22138309 C388.09216991 229.28964028 388.09083492 228.35789747 388.08945948 227.39792002 C388.08003486 220.78658441 388.07087345 214.17524845 388.06176662 207.56391239 C388.05137558 200.02395444 388.04085617 192.48399669 388.03002834 184.94403934 C388.0286976 184.01555193 388.02736686 183.08706452 388.02599579 182.13044112 C388.00354977 166.63781138 387.97334399 151.14520601 387.9376359 135.6526013 C387.91599105 126.0979438 387.90135587 116.54332426 387.89579713 106.98864359 C387.89154307 100.43632433 387.88028715 93.88404117 387.86357319 87.33174192 C387.8541876 83.55334169 387.84804668 79.77500892 387.85063648 75.99659634 C387.85338757 71.8948145 387.840771 67.79321946 387.82678127 63.69146061 C387.83008025 62.50476857 387.83337922 61.31807652 387.83677816 60.09542412 C387.77912869 49.84260175 386.98310173 40.00206688 380.56176662 31.62641239 C370.3220564 21.72676634 359.47767107 21.47934394 345.95118618 21.46819401 C344.04795589 21.46079952 344.04795589 21.46079952 342.10627651 21.45325565 C338.58906786 21.43972287 335.07186876 21.4322872 331.55464096 21.4258409 C327.70176719 21.4176861 323.84891313 21.40382311 319.9960537 21.39068794 C312.51995285 21.36605221 305.04384728 21.34644513 297.56772747 21.32860271 C288.91854981 21.3077432 280.26939925 21.28061607 271.6202383 21.25348759 C248.78826312 21.18496655 225.95626302 21.12496082 203.12426662 21.06391239 C152.11864162 20.91953739 101.11301662 20.77516239 48.56176662 20.62641239 C48.56176662 176.38641239 48.56176662 332.14641239 48.56176662 492.62641239 C124.97739162 492.44078739 124.97739162 492.44078739 202.93676662 492.25141239 C219.02990627 492.21741337 235.12304592 492.18341434 251.70385647 492.14838505 C266.11372662 492.10848207 266.11372662 492.10848207 280.52358913 492.06595707 C286.94814856 492.04706793 293.37269171 492.03356274 299.79727077 492.02372074 C307.20858185 492.01234856 314.61983854 491.99412571 322.03111104 491.9674836 C325.82137409 491.95407277 329.61157482 491.94370941 333.40186286 491.94215798 C337.46479863 491.9404252 341.52752858 491.9233742 345.59042263 491.90488529 C347.35551143 491.90778852 347.35551143 491.90778852 349.15625858 491.91075039 C359.38439112 491.84133352 369.20767731 491.0312142 377.56176662 484.62641239 C385.15344526 476.7739509 387.53935331 468.78602345 387.66723537 457.96234989 C387.6894717 456.74418583 387.6894717 456.74418583 387.71215725 455.50141239 C387.73701018 453.82710957 387.7420382 452.15240147 387.72778225 450.47797489 C387.8838872 444.53652583 387.8838872 444.53652583 389.81030178 441.95014286 C392.46827779 439.6031977 394.97068024 437.92659809 398.56176662 438.00141239 C399.18051662 437.98852177 399.79926662 437.97563114 400.43676662 437.96234989 C404.07587639 439.09957169 406.53472685 440.40934533 408.56176662 443.62641239 C409.43203662 448.32305798 409.30599114 452.92708524 409.18676662 457.68891239 C409.19321194 458.94897099 409.19965725 460.20902958 409.20629787 461.50727177 C409.03894784 476.22646776 404.32818509 488.59932084 394.24926662 499.43891239 C382.41811638 510.42873639 368.55602558 513.23568264 352.91590786 513.14107609 C351.36230784 513.14641085 349.80871299 513.15348186 348.25512785 513.16212314 C344.01619043 513.18065258 339.77760469 513.17447938 335.53865325 513.16397011 C330.95587319 513.15695089 326.3731634 513.17299611 321.79040432 513.18596745 C312.82669293 513.20756294 303.8631087 513.20749271 294.89937986 513.1993419 C287.61613403 513.19303464 280.3329252 513.19418557 273.04967976 513.20061398 C272.01198878 513.20151563 270.97429781 513.20241729 269.90516166 513.20334626 C267.79701371 513.20519749 265.68886578 513.20706005 263.58071785 513.20893382 C243.83377943 513.22549501 224.08691256 513.21680547 204.33997845 513.19994824 C186.26688202 513.1852339 168.19395157 513.19990706 150.1208765 513.22871841 C131.5577406 513.25809068 112.99468138 513.26909223 94.43152326 513.25953621 C92.33339657 513.25851365 90.23526986 513.25751904 88.13714314 513.2565527 C86.58869623 513.25583811 86.58869623 513.25583811 85.00896757 513.25510909 C77.72998379 513.25294312 70.45107252 513.26275807 63.17210484 513.27732372 C54.30847752 513.29481355 45.44506229 513.29477707 36.58144344 513.27197207 C32.05819045 513.26080266 27.53531162 513.25772855 23.01207447 513.27627277 C18.87387985 513.29302073 14.73638741 513.28680468 10.59823876 513.26205599 C9.09919447 513.25715375 7.60009414 513.26073977 6.10109652 513.27354342 C4.06744985 513.28966428 2.03361898 513.27212578 0 513.25282478 C-1.13075752 513.25255509 -2.26151503 513.25228541 -3.42653793 513.25200754 C-7.56842424 512.39164698 -8.98651931 511.05504169 -11.43823338 507.62641239 C-11.92947942 504.62124586 -12.11185491 502.18584395 -12.06743908 499.18521976 C-12.07470628 498.33338494 -12.08197349 497.48155011 -12.08946091 496.6039021 C-12.10777819 493.73579788 -12.09032439 490.86901964 -12.07315159 488.00092411 C-12.07891011 485.92951554 -12.08684941 483.85811206 -12.09678781 481.78671932 C-12.11772117 476.08394081 -12.10731634 470.38157897 -12.09185672 464.67879868 C-12.08057372 458.53282839 -12.09799076 452.38693127 -12.11175632 446.24097538 C-12.1327379 434.89341007 -12.13087295 423.5460152 -12.11719898 412.19845408 C-12.10462933 401.71607221 -12.10133389 391.23373922 -12.1073122 380.75135136 C-12.10769413 380.05647459 -12.10807605 379.36159783 -12.10846955 378.6456642 C-12.1100262 375.8250494 -12.1116182 373.00443463 -12.11326837 370.18381988 C-12.12856904 343.71539017 -12.11468711 317.2470454 -12.08778389 290.7786288 C-12.0640552 267.2545372 -12.06617831 243.73058093 -12.09008884 220.20649052 C-12.11685249 193.78698811 -12.127484 167.36756077 -12.11202753 140.94804668 C-12.1104239 138.13252228 -12.1088597 135.31699786 -12.1073122 132.50147343 C-12.10691682 131.8082015 -12.10652143 131.11492958 -12.10611406 130.40064941 C-12.10042275 119.92394225 -12.1070854 109.44728929 -12.11970997 98.97058964 C-12.13399064 87.06004376 -12.1299832 75.14965775 -12.10330625 63.2391181 C-12.09013735 57.15852152 -12.08506817 51.07820006 -12.10155201 44.99760532 C-12.11640068 39.4362123 -12.10834721 33.87535059 -12.08166425 28.31400609 C-12.07605769 26.2972616 -12.07896804 24.28047265 -12.09104319 22.26375651 C-12.10615598 19.53105962 -12.09075153 16.80020426 -12.06743908 14.06760502 C-12.07914491 13.27678791 -12.09085074 12.48597081 -12.10291129 11.67118955 C-12.03668896 7.81172314 -11.56591974 5.80497693 -9.30129761 2.63798863 C-5.88553337 0.23808782 -4.14531681 0.00098867 0 0 Z M8.56176662 20.62641239 C8.56176662 176.38641239 8.56176662 332.14641239 8.56176662 492.62641239 C15.16176662 492.62641239 21.76176662 492.62641239 28.56176662 492.62641239 C28.56176662 336.86641239 28.56176662 181.10641239 28.56176662 20.62641239 C21.96176662 20.62641239 15.36176662 20.62641239 8.56176662 20.62641239 Z M408.56176662 102.62641239 C408.56176662 121.43641239 408.56176662 140.24641239 408.56176662 159.62641239 C412.52176662 161.27641239 416.48176662 162.92641239 420.56176662 164.62641239 C427.12426662 167.50141239 427.12426662 167.50141239 430.06567287 168.80609989 C432.64703395 169.92943973 432.64703395 169.92943973 435.56176662 168.62641239 C436.59760812 166.92016357 436.59760812 166.92016357 437.33935452 164.76850224 C437.65300457 163.95030003 437.96665462 163.13209782 438.28980923 162.2891016 C438.61803173 161.39752354 438.94625423 160.50594547 439.28442287 159.58734989 C439.6305714 158.67313267 439.97671993 157.75891544 440.33335781 156.81699467 C441.44104633 153.88237386 442.53242637 150.94196126 443.62426662 148.00141239 C444.36351643 146.04140535 445.1037392 144.08176497 445.84496975 142.12250614 C446.55483737 140.23611953 447.26384906 138.34941056 447.97192287 136.46234989 C448.30216961 135.58291721 448.63241634 134.70348454 448.97267056 133.79740238 C450.70978006 129.11408326 452.26485919 124.45072843 453.56176662 119.62641239 C431.53010035 108.48179358 431.53010035 108.48179358 408.56176662 102.62641239 Z M408.56176662 182.62641239 C408.56176662 229.15641239 408.56176662 275.68641239 408.56176662 323.62641239 C415.42321642 327.06507682 415.42321642 327.06507682 422.43676662 329.87641239 C423.3623135 330.21156864 424.28786037 330.54672489 425.24145412 330.89203739 C427.47393716 331.72699433 427.47393716 331.72699433 429.56176662 331.62641239 C440.90979923 302.68513496 452.20799191 273.72498348 463.42419338 244.73233891 C465.34333298 239.77183729 467.26545262 234.81252605 469.19357204 229.85550785 C469.94182142 227.93096085 470.68866875 226.00587777 471.4348135 224.08051395 C472.27868736 221.90311877 473.12484452 219.72660634 473.973876 217.55121708 C474.32643459 216.63888309 474.67899319 215.72654911 475.04223537 214.78656864 C475.34025051 214.01965702 475.63826565 213.2527454 475.94531155 212.46259403 C476.66785629 210.63322884 476.66785629 210.63322884 476.56176662 208.62641239 C460.62395014 202.01233363 444.59870294 195.64810988 428.49926662 189.43891239 C427.62285519 189.09963718 426.74644375 188.76036198 425.84347439 188.4108057 C423.34343031 187.44380559 420.84161177 186.4815638 418.33911037 185.52094364 C417.58194729 185.22771214 416.8247842 184.93448063 416.04467678 184.63236332 C412.40772384 183.14664896 412.40772384 183.14664896 408.56176662 182.62641239 Z " fill="#000000" transform="translate(11.438233375549316,-0.6264123916625977)"/>
<path d="M0 0 C0.8765625 0.45503906 1.753125 0.91007813 2.65625 1.37890625 C4.80203414 2.54120599 6.91002583 3.74085507 9 5 C9.92619141 4.40251953 9.92619141 4.40251953 10.87109375 3.79296875 C11.71800781 3.26316406 12.56492187 2.73335937 13.4375 2.1875 C14.26121094 1.66542969 15.08492188 1.14335937 15.93359375 0.60546875 C23.14999738 -3.17280118 29.76134661 -4.53534917 37.875 -4.4375 C39.190448 -4.42722778 39.190448 -4.42722778 40.5324707 -4.41674805 C47.31229241 -4.24905815 52.93841311 -3.16212783 59 0 C59.8765625 0.45503906 60.753125 0.91007813 61.65625 1.37890625 C63.80203414 2.54120599 65.91002583 3.74085507 68 5 C68.44988281 4.68546875 68.89976562 4.3709375 69.36328125 4.046875 C81.32088932 -3.90888829 92.88467838 -5.41670038 107 -4 C117.93178933 -1.77616171 128.1724912 5.24358119 135 14 C142.70718919 26.85037253 145.85933267 38.6918792 142.8125 53.5625 C139.53818427 66.44851674 131.60974634 76.31461611 120.62890625 83.74609375 C118.04654721 84.97779843 115.57705379 85.77244488 112.83569336 86.57836914 C111.93129013 86.8454921 111.0268869 87.11261505 110.09507751 87.38783264 C109.40370193 87.58984787 108.71232635 87.7918631 108 88 C108.00888245 89.10167511 108.01776489 90.20335022 108.0269165 91.33840942 C108.10804093 101.72608075 108.16798401 112.11368772 108.20724869 122.50160408 C108.2281138 127.84202412 108.25641212 133.1821882 108.30175781 138.52246094 C108.34525346 143.67717883 108.3691452 148.83165068 108.37950897 153.98653793 C108.38689363 155.95212552 108.4013142 157.91769981 108.42292023 159.88318253 C108.45200353 162.63872513 108.45595393 165.39325412 108.45410156 168.14892578 C108.46848267 168.95956985 108.48286377 169.77021393 108.49768066 170.60542297 C108.45957495 175.85218171 107.47891704 178.8363082 104 183 C101.49261256 184.25369372 99.77864854 184.13424786 96.97172546 184.14717102 C95.90760437 184.15432632 94.84348328 184.16148163 93.74711609 184.16885376 C92.57461807 184.17154266 91.40212006 184.17423157 90.1940918 184.17700195 C88.96312775 184.18357315 87.7321637 184.19014435 86.46389771 184.19691467 C83.08154426 184.21327061 79.69925343 184.22487708 76.31687522 184.2331202 C74.2038554 184.23826995 72.09083998 184.2443457 69.97782326 184.25063133 C63.36716214 184.26968426 56.7565122 184.28391507 50.1458289 184.2922433 C42.51400975 184.3020166 34.88248057 184.32833775 27.2507636 184.36874419 C21.35260225 184.39890096 15.45452405 184.41371174 9.55628711 184.41702431 C6.03319459 184.41937536 2.51041181 184.42834218 -1.01259804 184.45348549 C-4.94379593 184.48108848 -8.87461208 184.47693637 -12.8059082 184.4699707 C-14.55554619 184.48918579 -14.55554619 184.48918579 -16.3405304 184.50878906 C-24.20459271 184.45787763 -24.20459271 184.45787763 -28.19963074 182.15812683 C-31.66435756 178.00491223 -31.13599196 173.62254608 -31.11352539 168.48950195 C-31.11367142 167.62099609 -31.11381744 166.75249023 -31.1139679 165.85766602 C-31.11327076 162.98451243 -31.10548761 160.11142352 -31.09765625 157.23828125 C-31.09579137 155.24716731 -31.09436779 153.25605292 -31.09336853 151.26493835 C-31.0895489 146.02227514 -31.07972332 140.77963959 -31.06866455 135.5369873 C-31.05843854 130.18807347 -31.05386835 124.83915517 -31.04882812 119.49023438 C-31.03810058 108.99347742 -31.02103077 98.49674101 -31 88 C-31.94004883 87.85304688 -32.88009766 87.70609375 -33.84863281 87.5546875 C-44.84413297 85.61931592 -54.04865489 77.49459942 -60.375 68.625 C-67.47417893 57.14162558 -69.7743161 44.21175126 -66.875 31.0625 C-63.70770767 19.66316676 -57.48695283 9.29550003 -47.24316406 2.90380859 C-32.93360421 -5.15987251 -15.12324622 -7.88929345 0 0 Z M-41.453125 25.89453125 C-46.25266321 32.42723604 -47.76272469 39.48171884 -46.59765625 47.43359375 C-44.77043679 55.27988907 -40.68411668 60.50217021 -34 65 C-26.56583368 69.21565607 -18.68205164 68.46281839 -10.33984375 68.52734375 C-8.65181641 68.56021484 -8.65181641 68.56021484 -6.9296875 68.59375 C-5.91116699 68.60083984 -4.89264648 68.60792969 -3.84326172 68.61523438 C-0.55712059 69.05993285 1.33588691 70.05577312 4 72 C5.7471332 75.49426641 5.5531477 79.18723193 5 83 C3.125 86 3.125 86 0 88 C-4.95 88.495 -4.95 88.495 -10 89 C-10 113.75 -10 138.5 -10 164 C22.01 164 54.02 164 87 164 C87 139.25 87 114.5 87 89 C83.7 88.67 80.4 88.34 77 88 C75.02 87.505 75.02 87.505 73 87 C70.72426707 82.44853414 70.73445227 78.88139837 72 74 C73.89111111 71.6818638 75.33828031 70.33085985 78 69 C79.76894218 68.90570515 81.54106822 68.8681735 83.3125 68.859375 C84.38886719 68.84003906 85.46523438 68.82070312 86.57421875 68.80078125 C88.82664923 68.76739288 91.07935487 68.74873464 93.33203125 68.74609375 C102.90854024 68.5302531 110.10161461 66.19115616 116.9375 59.3125 C121.55271428 53.49711179 123.37965522 47.26692829 122.9375 39.875 C121.623409 31.20470887 117.84714318 26.36567979 111.31640625 20.6640625 C104.78193102 15.96981891 97.77547982 16.28754088 90 17 C84.41889003 18.60326917 80.91157336 21.77127204 77 26 C74.03915958 29.04308599 71.87088891 30.32871879 67.6875 30.6875 C62.73321711 30.4738825 60.35114873 28.2650775 56.91796875 24.88671875 C51.27549383 19.33617825 46.25959659 16.85073766 38.3125 16.6875 C29.27454167 16.7896763 24.94645736 18.89990759 18.625 25.1875 C17.97789062 25.88230469 17.33078125 26.57710937 16.6640625 27.29296875 C14.09880014 29.92447028 12.25977342 30.1984274 8.6875 30.3125 C5.35021212 30.26978272 4.17561746 30.10776526 1.25 28.3125 C-0.29149911 26.72818147 -1.81148162 25.12272257 -3.3125 23.5 C-9.87955386 17.39111269 -15.71755325 16.32523389 -24.66015625 16.62109375 C-31.71170715 17.42109426 -36.66473768 20.74372012 -41.453125 25.89453125 Z " fill="#000000" transform="translate(192,151)"/>
<path d="M0 0 C4.37758112 2.34513274 4.37758112 2.34513274 6 5 C6.79658808 8.49581819 6.75872644 11.49951211 6 15 C3.48577015 18.73325038 1.86635918 19.74796824 -2.4375 21 C-6.53094236 21 -8.59065251 20.22004022 -12 18 C-14.82827437 13.75758844 -14.8876122 9.97696843 -14 5 C-10.90973636 -0.13529105 -5.51511126 -1.31312173 0 0 Z " fill="#000000" transform="translate(414,393)"/>
</svg>
